<svg width="75" height="20" viewBox="0 0 75 20" fill="none" xmlns="http://www.w3.org/2000/svg">
<path d="M22.3809 6.15039H26.0107C27.7158 6.15039 28.9492 6.40527 29.7109 6.91504C30.4727 7.4248 30.8535 8.23047 30.8535 9.33203C30.8535 10.0938 30.6396 10.7236 30.2119 11.2217C29.79 11.7139 29.1719 12.0332 28.3574 12.1797V12.2676C30.3086 12.6016 31.2842 13.627 31.2842 15.3438C31.2842 16.4922 30.8945 17.3887 30.1152 18.0332C29.3418 18.6777 28.2578 19 26.8633 19H22.3809V6.15039ZM23.875 11.6523H26.3359C27.3906 11.6523 28.1494 11.4883 28.6123 11.1602C29.0752 10.8262 29.3066 10.2666 29.3066 9.48145C29.3066 8.76074 29.0488 8.24219 28.5332 7.92578C28.0176 7.60352 27.1973 7.44238 26.0723 7.44238H23.875V11.6523ZM23.875 12.918V17.7256H26.5557C27.5928 17.7256 28.3721 17.5264 28.8936 17.1279C29.4209 16.7236 29.6846 16.0938 29.6846 15.2383C29.6846 14.4414 29.415 13.8555 28.876 13.4805C28.3428 13.1055 27.5283 12.918 26.4326 12.918H23.875ZM42.1475 14.1748C42.1475 15.7451 41.752 16.9727 40.9609 17.8574C40.1699 18.7363 39.0771 19.1758 37.6826 19.1758C36.8213 19.1758 36.0566 18.9736 35.3887 18.5693C34.7207 18.165 34.2051 17.585 33.8418 16.8291C33.4785 16.0732 33.2969 15.1885 33.2969 14.1748C33.2969 12.6045 33.6895 11.3828 34.4746 10.5098C35.2598 9.63086 36.3496 9.19141 37.7441 9.19141C39.0918 9.19141 40.1611 9.63965 40.9521 10.5361C41.749 11.4326 42.1475 12.6455 42.1475 14.1748ZM34.8086 14.1748C34.8086 15.4053 35.0547 16.3428 35.5469 16.9873C36.0391 17.6318 36.7627 17.9541 37.7178 17.9541C38.6729 17.9541 39.3965 17.6348 39.8887 16.9961C40.3867 16.3516 40.6357 15.4111 40.6357 14.1748C40.6357 12.9502 40.3867 12.0215 39.8887 11.3887C39.3965 10.75 38.667 10.4307 37.7002 10.4307C36.7451 10.4307 36.0244 10.7441 35.5381 11.3711C35.0518 11.998 34.8086 12.9326 34.8086 14.1748ZM46.085 9.36719V15.4756L46.0234 17.0752L45.9971 17.5762L51.209 9.36719H53.0283V19H51.666V13.1113L51.6924 11.9512L51.7363 10.8086L46.5332 19H44.7139V9.36719H46.085ZM48.8359 8.09277C47.752 8.09277 46.9609 7.88477 46.4629 7.46875C45.9648 7.04688 45.6865 6.35547 45.6279 5.39453H46.999C47.0518 6.00391 47.21 6.42871 47.4736 6.66895C47.7432 6.90918 48.209 7.0293 48.8711 7.0293C49.4746 7.0293 49.9199 6.90039 50.207 6.64258C50.5 6.38477 50.6787 5.96875 50.7432 5.39453H52.123C52.0527 6.32031 51.7568 7.00293 51.2354 7.44238C50.7139 7.87598 49.9141 8.09277 48.8359 8.09277ZM62.6172 10.6152H59.4883V19H58.0293V10.6152H54.9355V9.36719H62.6172V10.6152ZM65.8955 9.36719V15.4756L65.834 17.0752L65.8076 17.5762L71.0195 9.36719H72.8389V19H71.4766V13.1113L71.5029 11.9512L71.5469 10.8086L66.3438 19H64.5244V9.36719H65.8955Z" fill="white"/>
<path d="M5.12056 15.0928L6.13889 16.1111L9.75 12.5L6.13889 8.88889L5.12056 9.90722L6.98389 11.7778H0V13.2222H6.98389L5.12056 15.0928ZM11.5556 6H1.44444C0.642778 6 0 6.65 0 7.44444V10.3333H1.44444V7.44444H11.5556V17.5556H1.44444V14.6667H0V17.5556C0 18.35 0.642778 19 1.44444 19H11.5556C12.35 19 13 18.35 13 17.5556V7.44444C13 6.65 12.35 6 11.5556 6Z" fill="white"/>
</svg>
